# xmcd
#
# Track frame offsets: 
#        150
#        64632
#        95465
#        123416
#        145208
#        184489
#        217117
#        257089
#        277384
#
# Disc length: 4263 seconds
#
# Revision: 0
# Processed by: cddbd v1.5.2PL0 Copyright (c) Steve Scherf et al.
# Submitted via: ExactAudioCopy v1.0b6
#
DISCID=9510a509
DTITLE=麗蘭 - 磔磔2016盤「Welcome Home 磔磔」DISC2
DYEAR=2017
DGENRE=Blues
TTITLE0=今夜R&Bを…
TTITLE1=ミュージック
TTITLE2=光るゼブラのブギー
TTITLE3=ゆく歳くる歳
TTITLE4=紅 く・れ・な・い
TTITLE5=Hello Good-bye
TTITLE6=Get Back
TTITLE7=サフラン
TTITLE8=ミステリー
EXTD=
EXTT0=
EXTT1=
EXTT2=
EXTT3=
EXTT4=
EXTT5=
EXTT6=
EXTT7=
EXTT8=
PLAYORDER=
